<svg xmlns="http://www.w3.org/2000/svg" xmlns:xlink="http://www.w3.org/1999/xlink" viewBox="0 0 1087.93 453.33"><defs><style>.cls-1,.cls-15,.cls-2{opacity:0.1;}.cls-1,.cls-2,.cls-5,.cls-9{isolation:isolate;}.cls-2,.cls-4{fill:#7bd2aa;}.cls-3{fill:none;stroke:#535461;stroke-miterlimit:10;stroke-width:2px;}.cls-5{opacity:0.25;}.cls-6{fill:url(#linear-gradient);}.cls-7{fill:#fff;}.cls-8,.cls-9{fill:#5a5773;}.cls-9{opacity:0.2;}.cls-10{fill:url(#linear-gradient-2);}.cls-11{fill:#efb7b9;}.cls-12{fill:#ff6484;}.cls-13{fill:#a1616a;}.cls-14{fill:#925978;}</style><linearGradient id="linear-gradient" x1="654.16" y1="246.78" x2="654.16" y2="743.02" gradientTransform="matrix(1, 0, 0, -1, -41.9, 838.58)" gradientUnits="userSpaceOnUse"><stop offset="0" stop-color="gray" stop-opacity="0.25"/><stop offset="0.54" stop-color="gray" stop-opacity="0.12"/><stop offset="1" stop-color="gray" stop-opacity="0.1"/></linearGradient><linearGradient id="linear-gradient-2" x1="476.53" y1="-1.7" x2="476.53" y2="636.68" xlink:href="#linear-gradient"/></defs><g id="Layer_2" data-name="Layer 2"><g id="cbb92aef-a4c8-4910-9d60-405154a20c92"><path class="cls-1" d="M392.81,413s12.49,12.91,10,17.49S392.81,413,392.81,413Z"/><path class="cls-1" d="M363.3,428.64s7.44-3.12,9.1,0S363.3,428.64,363.3,428.64Z"/><path class="cls-1" d="M365.93,434s7.44-3.12,9.11,0S365.93,434,365.93,434Z"/><path class="cls-2" d="M212.21,450.48l27.14.48c127.76-.67,255.52,1.2,383.28,2q45.21,0,90.39.15,54.08.15,108.13.21h226.44c-34.31-17.86-71.2-33.78-84.54-63.24-12.26-27.11.33-57.31,18.16-82.45,36.49-51.47,96.52-96.92,104.86-154.54.4-2.76.69-5.55.84-8.37a82.82,82.82,0,0,0-.84-17.09,89.9,89.9,0,0,0-4.69-18.12C1070.6,80.32,1045,54.36,1010.78,40c-49.91-21-119.16-18.35-156,16.41C816.85,92.15,750.19,105.92,693,104.08,628.32,102,566.71,82.63,507.82,61.43s-117.16-44.68-180.33-56c-40.62-7.18-87.1-8.2-119.83,12-31.51,19.44-41.73,53-47.16,84.13-.46,2.61-.89,5.25-1.31,7.92-3.18,21-3.95,42.62,6.05,62.09,7.84,15.22,21.74,28,31.36,42.6C230.07,265,206.41,327.56,170.15,377,160,391,148.79,404.49,138.66,418.42a244.38,244.38,0,0,0-18.39,28.77c-.57,1.09-1.13,2.18-1.68,3.28C149.79,449.91,180.93,449.88,212.21,450.48Z"/><g id="d00831fc-a64a-413c-b5dd-d7bd6eafa01d"><path class="cls-3" d="M257.82,324.88s-46-81.52-115.32-105C113.41,210,88,191.48,70.66,166.14A239,239,0,0,1,49.46,128"/><path class="cls-4" d="M5.87,112.93c7.9,7.63,44.68,15.63,44.68,15.63S41.55,92,33.63,84.37A19.93,19.93,0,0,0,5.87,113Z"/><path class="cls-4" d="M26.68,179c10.79,2.14,46-11.19,46-11.19s-27.45-25.76-38.25-27.9A19.93,19.93,0,0,0,26.68,179Z"/><path class="cls-4" d="M102.43,250.56c10.4-3.6,34-32.87,34-32.87s-36.68-8.39-47.07-4.79A19.93,19.93,0,1,0,101.19,251c.39-.12.79-.25,1.17-.4Z"/><path class="cls-4" d="M171.93,291.75C182.79,290,211,265.1,211,265.1s-34.73-14.47-45.59-12.68a19.93,19.93,0,0,0,6.49,39.33Z"/><path class="cls-4" d="M103.32,139.29c0,11-19.9,42.93-19.9,42.93s-19.94-31.91-20-42.91a19.93,19.93,0,1,1,39.85-.89c0,.29,0,.59,0,.89Z"/><path class="cls-4" d="M184,188.56c-3.29,10.5-31.84,35-31.84,35s-9.48-36.45-6.23-47a19.93,19.93,0,0,1,38,11.91Z"/><path class="cls-4" d="M255.84,247.11C254.38,258,230.38,287,230.38,287s-15.5-34.28-14-45.19a19.93,19.93,0,0,1,39.5,5.31Z"/><path class="cls-5" d="M5.87,112.93c7.9,7.63,44.68,15.63,44.68,15.63S41.55,92,33.63,84.37A19.93,19.93,0,0,0,5.87,113Z"/><path class="cls-5" d="M26.68,179c10.79,2.14,46-11.19,46-11.19s-27.45-25.76-38.25-27.9A19.93,19.93,0,0,0,26.68,179Z"/><path class="cls-5" d="M102.43,250.56c10.4-3.6,34-32.87,34-32.87s-36.68-8.39-47.07-4.79A19.93,19.93,0,1,0,101.19,251c.39-.12.79-.25,1.17-.4Z"/><path class="cls-5" d="M171.93,291.75C182.79,290,211,265.1,211,265.1s-34.73-14.47-45.59-12.68a19.93,19.93,0,0,0,6.49,39.33Z"/><path class="cls-5" d="M103.32,139.29c0,11-19.9,42.93-19.9,42.93s-19.94-31.91-20-42.91a19.93,19.93,0,1,1,39.85-.89c0,.29,0,.59,0,.89Z"/><path class="cls-5" d="M184,188.56c-3.29,10.5-31.84,35-31.84,35s-9.48-36.45-6.23-47a19.93,19.93,0,0,1,38,11.91Z"/><path class="cls-5" d="M255.84,247.11C254.38,258,230.38,287,230.38,287s-15.5-34.28-14-45.19a19.93,19.93,0,0,1,39.5,5.31Z"/><path class="cls-3" d="M255.17,323.26s-9-93.18-62.88-142.74c-22.59-20.8-38.29-48-43.9-78.24a238.93,238.93,0,0,1-3.92-43.45"/><path class="cls-4" d="M110.72,27.4c4.12,10.21,34.53,32.36,34.53,32.36s6.55-37,2.44-47.26a19.94,19.94,0,1,0-37,14.9Z"/><path class="cls-4" d="M102.93,96.25c9,6.33,46.57,8.4,46.57,8.4s-14.57-34.66-23.57-41a19.94,19.94,0,0,0-23,32.59Z"/><path class="cls-4" d="M143.24,192.33c11,.93,44.44-16.26,44.44-16.26s-30.13-22.53-41.1-23.45a19.93,19.93,0,0,0-4.22,39.64l.88.07Z"/><path class="cls-4" d="M190.08,258.17c10.66,2.76,46.55-8.52,46.55-8.52s-25.89-27.3-36.54-30.06a19.93,19.93,0,0,0-10,38.58Z"/><path class="cls-4" d="M189.13,91c-4.45,10.06-35.59,31.17-35.59,31.17s-5.3-37.24-.85-47.31A19.93,19.93,0,1,1,189.4,90.38C189.32,90.58,189.23,90.79,189.13,91Z"/><path class="cls-4" d="M242.93,168.67c-7.26,8.27-43.29,19.1-43.29,19.1s6.08-37.12,13.35-45.39a19.92,19.92,0,1,1,29.94,26.29Z"/><path class="cls-4" d="M284.93,251.36c-5.76,9.38-39.44,26.14-39.44,26.14s-.28-37.62,5.48-47a19.94,19.94,0,1,1,34,20.86Z"/></g><path class="cls-6" d="M212.21,450.48l27.14.48c127.76-.67,255.52,1.2,383.28,2q45.21,0,90.39.15,54.08.15,108.13.21h231.62a244.85,244.85,0,0,1,35.16-4.21V95.56H136.58V450.21Q174.37,449.78,212.21,450.48Z"/><path class="cls-7" d="M212.21,450.48l27.14.48c127.76-.67,255.52,1.2,383.28,2q45.21,0,90.39.15,54.08.15,108.13.21h231.62a243,243,0,0,1,33.32-4.11V109.56H138.66V450.19Q175.41,449.8,212.21,450.48Z"/><rect class="cls-8" x="138.67" y="96.95" width="947.42" height="25.14"/><g id="_6703b009-63cb-4af0-a0d7-9948e224c180" data-name="6703b009-63cb-4af0-a0d7-9948e224c180"><circle class="cls-7" cx="157.59" cy="109.52" r="6.5"/><circle class="cls-7" cx="175.09" cy="109.52" r="6.5"/><circle class="cls-7" cx="192.59" cy="109.52" r="6.5"/></g><rect class="cls-4" x="380.78" y="177.34" width="156.5" height="98.34"/><rect class="cls-9" x="164.09" y="177.34" width="156.5" height="98.34"/><rect class="cls-9" x="597.47" y="177.34" width="156.5" height="98.34"/><rect class="cls-9" x="164.09" y="317.93" width="156.5" height="98.34"/><rect class="cls-9" x="380.78" y="317.93" width="156.5" height="98.34"/><rect class="cls-9" x="597.47" y="317.93" width="156.5" height="98.34"/><path class="cls-10" d="M522.46,452.18c-1.73-8.45-13.16-28.42-13.16-28.42S481.19,372.38,485.93,364s8.23-20.46,8.23-20.46,10.38-7.1,10.38-10S512.76,324,517.09,321s2.16-16.71,0-18.38-5.59-7.52-5.59-7.52,3-8.35,0-10.86.44-5,0-7.52,0-11.69,0-11.69c-3.51-4.88-7.4-7.16-11.06-8l-.32-1.32L498.27,248s9-17.25-5.6-26.28a23.12,23.12,0,0,0-3.23-1.7,11.21,11.21,0,0,0-.08-1.13,70.67,70.67,0,0,0-2.12-13.21c-.76-2.42-1.75-4-3-3.68a2.11,2.11,0,0,0-.82.47,9.39,9.39,0,0,0-1.55,1.83.26.26,0,0,1-.07.11,31.49,31.49,0,0,0-3.44,9.55,57.75,57.75,0,0,0-1,6,33.37,33.37,0,0,0-1.67,3.71c-1.77,4.59-3.84,12.54-.07,18.42,3.2,5,7.51,11.87,10.64,16.87l.1.16.19.31-.33.21v.77l.29,4.21L488.93,301a15.1,15.1,0,0,0-2.22-.47,19.41,19.41,0,0,0-3.23-.21c-2.11-8.29-7.9-16-9-24.66a25.41,25.41,0,0,1-.17-2.61c.09-5.45,1.45-10.92,1.34-16.36,0-1,0-2-.1-3a8,8,0,0,0-.08-.83,24.56,24.56,0,0,0-13.37-18.63c-2.51-1.25-5.23-2.08-7.67-3.45-5.64-3.16-9.25-8.86-14.37-12.77-3.81-2.91-9.5-4.47-13.75-3a64,64,0,0,0-6.69,1.38,60,60,0,0,0-15.31,6.36c-.65.39-1.3.79-1.92,1.25a8.53,8.53,0,0,0-3.09,3.61,9.51,9.51,0,0,0-.48,3.89c0,1,0,1.92.06,2.87-.28,16-17.52,28.38-18.94,44,0,.37-.06.74-.08,1.11v3c.25,6.85,3.81,13.23,4.46,20.05.06.61.09,1.21.1,1.82a30,30,0,0,1-1.77,9.18,27,27,0,0,0-6.21,2.52c-5.24,3.37-14.7,9.19-18.15,20.32A30,30,0,0,0,357,345.2a184.88,184.88,0,0,1-2.92,31.85,58.55,58.55,0,0,1-1.84,7.83,2,2,0,0,0-.06.77l-2.08,27-.37,4.75-.52,6.76s.15.41.37,1.1a30.45,30.45,0,0,1,.82,3.12,16.53,16.53,0,0,1,.27,7,4.73,4.73,0,0,1-1.46,2.57,1.54,1.54,0,0,0-.17.19c-.59.83-1.12,3.3-1.58,6.88-.18,1.4-.35,3-.52,4.66,0,.4-.07.82-.11,1.23C405.36,451.13,463.91,451.66,522.46,452.18Z"/><path class="cls-11" d="M498.93,263.48l-10.8,3.82-3.92-6.5c-3-5-7.16-11.84-10.23-16.81-5.42-8.74,1.67-22.06,1.67-22.06s1.28-13.37,5.84-17.49,5.83,17.49,5.83,17.49c18.31,8.32,8.5,27.89,8.5,27.89l1.78,7.76Z"/><path class="cls-1" d="M498.93,263.48l-10.8,3.82-3.92-6.5v-.57s6.19-4.25,13.41-2.65Z"/><path class="cls-12" d="M481.49,307.28l5.41-4.58-2.71-41.22s14-9.58,24.36,5.41c0,0-.42,9.16,0,11.66s-2.91,5,0,7.49,0,10.83,0,10.83,3.29,5.83,5.37,7.49,4.17,15.41,0,18.32-12,9.58-12,12.49-10,10-10,10l-8.78-11.61Z"/><circle class="cls-13" cx="431.53" cy="263.48" r="28.73"/><path class="cls-12" d="M378.43,451.05q70.2.39,140.4,1.1c-2.37-9-12.35-27.06-12.35-27.06s-27.07-51.2-22.49-59.53,7.94-20.4,7.94-20.4l-5-42.46s-7.49-2.5-13.74,2.08-27.48,2.08-27.48,2.08l-34.17,2.5s-26.61,4.2-32.89,8.32-18.72,12.08-18.72,29.15-2.91,34.56-4.58,39.55,26.23,45.38,26.23,45.38Z"/><path class="cls-1" d="M350.87,450.92q16.49.06,33,.16A132.37,132.37,0,0,0,385.1,436s0-35.81,2.92-41.64,0-20.4,0-20.4-5.83-7.91-5.42-10.82-16.23,20.36-16.23,20.36l-10.44,2.91L353,425.56s3.75,10.41,0,13.74C352.17,440.07,351.45,444.54,350.87,450.92Z"/><path class="cls-12" d="M350.25,450.92q16.47.06,32.94.16a134.18,134.18,0,0,0,1.29-15.15s0-35.81,2.91-41.64,0-20.4,0-20.4S381.56,366,382,363.07s-16.24,20.4-16.24,20.4l-10.41,2.91-2.91,39.18s3.75,10.41,0,13.74C351.55,440.07,350.84,444.54,350.25,450.92Z"/><path class="cls-1" d="M472.33,389.71s-5.41,46.63-21.24,55.38C451.09,445.09,486.48,435.1,472.33,389.71Z"/><path class="cls-1" d="M392.81,393.88s19.56,9.57,15,16.23S392.81,393.88,392.81,393.88Z"/><path class="cls-1" d="M493.56,306s4.9,8.32,5.37,13.74S493.56,306,493.56,306Z"/><path class="cls-1" d="M493.56,294.79s2.46-2.09,8.74,0S493.56,294.79,493.56,294.79Z"/><path class="cls-1" d="M431.11,217.7a57.42,57.42,0,0,0-25.62,8.23c-2,1.21-4,2.68-4.83,4.85-.72,1.88-.42,4-.39,6,.27,17.22-18.93,30.25-18.33,47.46.24,6.83,3.67,13.19,4.3,20,1.05,11.36-5.67,21.81-12.11,31.22a25.86,25.86,0,0,0,18.25-6,138.26,138.26,0,0,1,2.55,69.75h9.21a6.81,6.81,0,0,1,2.69.33,6.54,6.54,0,0,1,2.13,1.59c8.61,8.57,14.38,21.24,11.09,32.94l19.6-7.35c4.69-1.76,9.45-3.55,13.53-6.45s7.5-7.11,8.36-12.05c.53-3,.36-6.58,2.83-8.32a15.34,15.34,0,0,1,3.86-1.43c5.38-1.9,7.76-8.12,8.86-13.72a79,79,0,0,0,1.25-20.87c-.87-11.7-4.33-23.58-1.48-35,1.61-6.41,5.19-12.38,5.48-19,.47-10.91-8.06-20.31-9.33-31.16-.89-7.56,1.84-15.21.95-22.77a24.44,24.44,0,0,0-12.87-18.57c-2.41-1.24-5-2.07-7.38-3.44-5.43-3.15-8.9-8.82-13.83-12.72s-13.14-5.37-16.85-.3Z"/><path class="cls-14" d="M431.11,216.45a57.42,57.42,0,0,0-25.62,8.23c-2,1.21-4,2.68-4.83,4.85-.72,1.88-.42,4-.39,6,.27,17.22-18.93,30.25-18.33,47.47.24,6.82,3.67,13.18,4.3,20,1.05,11.36-5.67,21.81-12.11,31.23a26,26,0,0,0,18.25-6.05,138.18,138.18,0,0,1,2.55,69.73h9.21a7,7,0,0,1,2.69.34,6.51,6.51,0,0,1,2.13,1.58c8.61,8.58,14.38,21.24,11.09,32.94l19.6-7.35c4.69-1.76,9.45-3.55,13.53-6.45s7.5-7.11,8.36-12.05c.53-3,.36-6.58,2.83-8.32a15.34,15.34,0,0,1,3.86-1.43c5.38-1.9,7.76-8.12,8.86-13.72a78.71,78.71,0,0,0,1.28-20.89c-.87-11.7-4.33-23.58-1.48-35,1.61-6.41,5.19-12.38,5.48-19,.47-10.91-8.06-20.31-9.33-31.16-.89-7.56,1.84-15.2.95-22.77a24.46,24.46,0,0,0-12.87-18.57c-2.41-1.24-5-2.07-7.38-3.43-5.43-3.16-8.9-8.83-13.83-12.73s-13.14-5.37-16.85-.3Z"/><g class="cls-15"><path d="M400.25,231.37a11.12,11.12,0,0,0-.06,1.16C400.22,232.15,400.24,231.76,400.25,231.37Z"/><path d="M472.93,271.4c.36-5.3,1.54-10.62,1.1-15.9C473.7,260.8,472.52,266.12,472.93,271.4Z"/><path d="M386.24,297.75c-.58-6.2-3.47-12-4.15-18.19a24.4,24.4,0,0,0-.15,3.42c.24,6.75,3.59,13.06,4.27,19.78A26.21,26.21,0,0,0,386.24,297.75Z"/><path d="M476.93,322.38a43.2,43.2,0,0,0-1,12.42,38,38,0,0,1,1-7.21c1.61-6.41,5.19-12.38,5.48-19a19.73,19.73,0,0,0-.16-3.52C481.47,311,478.36,316.56,476.93,322.38Z"/><path d="M392.38,322.92a26.05,26.05,0,0,1-14.76,6c-1.14,1.78-2.32,3.52-3.49,5.24a26,26,0,0,0,18.25-6.05,137.44,137.44,0,0,1,5.82,37.45A138,138,0,0,0,392.38,322.92Z"/><path d="M477.12,378.21c-1.1,5.6-3.48,11.82-8.86,13.71a15,15,0,0,0-3.86,1.44c-2.47,1.74-2.3,5.34-2.83,8.32-.86,4.94-4.27,9.14-8.36,12s-8.84,4.7-13.53,6.46l-18.7,7a25.41,25.41,0,0,1-.9,5.55l19.6-7.35c4.69-1.76,9.45-3.55,13.53-6.45s7.5-7.11,8.36-12.05c.53-3,.36-6.58,2.83-8.32a15.34,15.34,0,0,1,3.86-1.43c5.38-1.9,7.76-8.12,8.86-13.72a77.89,77.89,0,0,0,1.41-17.7A77.78,77.78,0,0,1,477.12,378.21Z"/><path d="M409,394.56a6.54,6.54,0,0,0-2.13-1.59,7.2,7.2,0,0,0-2.69-.34H396c-.32,1.74-.66,3.48-1,5.21h9.21a7,7,0,0,1,2.69.34,6.51,6.51,0,0,1,2.13,1.58c6.3,6.28,11.07,14.74,11.89,23.42C421.93,412.8,416.55,402.12,409,394.56Z"/></g><g id="_5f43f84a-a268-4bb5-a31a-6b0c09aee323" data-name="5f43f84a-a268-4bb5-a31a-6b0c09aee323"><path class="cls-2" d="M827,30.24S789,28,793.48,54.61c0,0-.89,4.71,3.38,6.85,0,0,.07-2,3.9-1.31a17.33,17.33,0,0,0,4.13.2,8.52,8.52,0,0,0,5-2.09h0s10.69-4.41,14.85-21.89c0,0,3.08-3.82,3-4.8l-6.42,2.75s2.19,4.63.46,8.48c0,0-.2-8.32-1.44-8.12-.25,0-3.33,1.6-3.33,1.6s3.77,8.07.92,13.94c0,0,1.08-9.94-2.1-13.35l-4.54,2.69s4.41,8.33,1.42,15.13c0,0,.77-10.43-2.37-14.49l-4.1,3.19s4.15,8.17,1.65,13.81c0,0-.33-12.15-2.51-13.06,0,0-3.58,3.16-4.12,4.46,0,0,2.83,6,1.07,9.1,0,0-1.08-8.08-2-8.12,0,0-3.57,5.36-3.94,9A19.65,19.65,0,0,1,799.5,49,10.72,10.72,0,0,0,794,51.87s.55-3.79,6.34-4.13c0,0,3-4.06,3.74-4.31,0,0-5.76-.48-9.25,1.07,0,0,3.07-3.58,10.31-2l4-3.3s-7.58-1-10.8.11c0,0,3.7-3.16,11.89-.86l4.4-2.63s-6.46-1.4-10.31-.89c0,0,4.06-2.19,11.6.18l3.15-1.41s-4.74-.93-6.12-1.08-1.46-.53-1.46-.53a16.37,16.37,0,0,1,8.89,1S827.15,30.66,827,30.24Z"/><path class="cls-2" d="M772.81,8.62s-32,20.71-12.59,39.52c0,0,2.07,4.32,6.78,3.52,0,0-1.12-1.64,2.37-3.37A17,17,0,0,0,772.82,46a8.59,8.59,0,0,0,2.83-4.67h0s6-9.9-1-26.44c0,0,.22-4.9-.46-5.62l-3.54,6s4.51,2.43,5.4,6.55c0,0-5.09-6.57-6-5.68-.18.18-1.74,3.27-1.74,3.27s7.83,4.26,9,10.67c0,0-5-8.65-9.61-9.5l-2.08,4.8s8.5,4.1,10.12,11.35c0,0-5.57-8.86-10.5-10.27l-1.4,5s8.2,4.16,9.51,10.2c0,0-7.46-9.58-9.76-9,0,0-1,4.66-.68,6,0,0,5.82,3.12,6.26,6.7,0,0-5.66-5.87-6.39-5.38,0,0,.3,6.43,2.17,9.61a19.6,19.6,0,0,1-3.18-9.51,10.76,10.76,0,0,0-2.72,5.52s-1.8-3.38,2.67-7.08c0,0,0-5,.45-5.69,0,0-4.92,3-6.82,6.34,0,0,.36-4.7,7.15-7.68l1.3-5s-6.72,3.66-8.63,6.49c0,0,1.11-4.74,9.06-7.74l2-4.73s-6,2.71-8.84,5.4c0,0,2-4.18,9.46-6.73l1.7-3s-4.37,2.06-5.57,2.76-1.49.44-1.49.44a16.41,16.41,0,0,1,7.75-4.47S773.15,8.9,772.81,8.62Z"/><path class="cls-2" d="M724.11,32.75s-19.13,33,6.7,40.93c0,0,3.81,2.91,7.64,0,0,0-1.73-.94.59-4.07a17.38,17.38,0,0,0,2-3.6,8.57,8.57,0,0,0,.41-5.45h0s.85-11.54-12.9-23.11c0,0-2-4.46-3-4.79l-.43,7s5.12.12,7.79,3.39c0,0-7.52-3.55-7.9-2.36-.08.24-.07,3.7-.07,3.7s9,.27,13,5.45c0,0-8.4-5.43-12.87-4.11l.32,5.22s9.43-.2,14.16,5.53c0,0-9-5.37-14-4.39l1,5.09s9.2,0,13.1,4.78c0,0-11-5.16-12.79-3.63,0,0,1.21,4.62,2.13,5.69,0,0,6.6.14,8.62,3.13,0,0-7.71-2.67-8.14-1.89,0,0,3.19,5.59,6.3,7.57a19.59,19.59,0,0,1-7.15-7,10.82,10.82,0,0,0,.08,6.15s-3.14-2.19-.84-7.52c0,0-2.3-4.46-2.17-5.27,0,0-3,4.93-3.2,8.74,0,0-1.82-4.35,2.88-10.08l-1.13-5.1s-4.33,6.31-4.75,9.7c0,0-1.16-4.73,4.57-11l-.38-5.11s-4.14,5.15-5.42,8.82c0,0-.14-4.62,5.37-10.29l.15-3.45s-3,3.81-3.71,5-1.13,1-1.13,1a16.41,16.41,0,0,1,4.88-7.51S724.53,32.84,724.11,32.75Z"/></g><path class="cls-4" d="M888.36,408.93a14.31,14.31,0,1,0,14.31,14.31h0A14.34,14.34,0,0,0,888.36,408.93ZM846.52,296.64V311h14.31l25.76,52.18-10.77,17.53a13.84,13.84,0,0,0-1.79,6.8c0,9.58,6.55,14.31,15.43,14.31h83.67V388H891.21a1.69,1.69,0,0,1-1.79-1.58v-.21a9.35,9.35,0,0,1,.76-1.78l7.15-11.29h53.31a14,14,0,0,0,12.52-7.51l25.77-44.31a8.2,8.2,0,0,0,.72-3.58,6.88,6.88,0,0,0-6.95-6.81H876.58l-6.8-14.31ZM958.81,408.93a14.31,14.31,0,1,0,14.32,14.31A14.31,14.31,0,0,0,958.81,408.93Z"/><polygon class="cls-7" points="940.5 336.23 928.5 336.23 928.5 324.23 919.5 324.23 919.5 336.23 907.5 336.23 907.5 345.23 919.5 345.23 919.5 357.23 928.5 357.23 928.5 345.23 940.5 345.23 940.5 336.23"/></g></g></svg>