<svg id="Layer_1" data-name="Layer 1" xmlns="http://www.w3.org/2000/svg" viewBox="0 0 700 500"><defs><style>.cls-1{fill:#7bd2aa;}.cls-2{fill:#6fb996;}.cls-3,.cls-5,.cls-7,.cls-8{fill:#53c467;}.cls-3{stroke:#53a667;}.cls-3,.cls-6,.cls-7,.cls-8{stroke-miterlimit:10;}.cls-4{fill:#6fc373;}.cls-6{fill:none;}.cls-6,.cls-8{stroke:#000;}.cls-7{stroke:#53a467;}</style></defs><path class="cls-1" d="M319.85,521.38c-7.05-25.88,2.55-36.69,18.46-52.3,29.78-29.23,86.5-70.4,161.23-91.7,35.74-10.18,38.86-9.22,95.38-35.07,9.57-4.38,33.12-7.62,74.46-18.46,34.3-9,49.83-6.55,60.93,1.84,20.18,15.26,10.38,59.85,0,107.08-10.62,48.32-17.42,79.23-33.23,102.15C622.36,643.22,342.63,605.08,319.85,521.38Z"/><path class="cls-2" d="M346.92,480.31c1.35-19.4,57.95-39.76,104.62-35.85,8,.68,18.13,2.27,34.46,1.85,22.32-.58,37.15-1,50.46-9.23,16.14-10,10.89-19.73,31.39-42.46,8.24-9.15,21.79-24.18,43.07-31.39s26.21,1.55,46.16-6.77c19.29-8,20.8-18.8,36.92-22.15,16.3-3.4,31.58,4.1,37.54,8,34,22.2,40.17,107,2.46,151.38-8.42,9.91-20.76,19.81-171.69,33.23-73.63,6.55-133.48,9.78-189.54-20.92C351.25,494.22,346.51,486.32,346.92,480.31Z"/><path class="cls-3" d="M560.3,427.91c-6.17,6.61,23.55,59.71,53,82.61,3.78,2.94,13.31,10.35,17,7.49,4.72-3.6-2.77-21.35-4-24.15C611.18,457.78,566.44,421.33,560.3,427.91Z"/><path class="cls-1" d="M214.62-7.38c38.67,11.06,68.43,23,80.61,50.61,8,18,9.6,45.43-4.31,60.31-10.69,11.44-20.76,5-67.07,19.69-26.42,8.4-36.81,14.84-41.85,25.23-4.61,9.5-.8,14.16-6.15,21.54-9.19,12.66-32.48,15.59-49.85,9.23-19.63-7.18-17.36-21-33.85-24.61-13.53-3-18.64,5.5-51.07,12.92-16.43,3.75-24.64,5.63-30,4.31C-24.26,163.13-58.23,27.52-1.38-26.31,33.4-59.25,93.81-42,214.62-7.38Z"/><path class="cls-2" d="M238-2.54c5.52,11.17,11.65,36.46,0,47.63-7.61,7.3-17.43,3.41-28.92,13.48-3.87,3.39-7.56,10.51-14.77,24.62-10.84,21.2-11.33,24.91-17.23,29.31-9.66,7.19-21.54,7.07-25.85,7-21.67-.22-25.72-14.11-43.08-13.48-14.33.52-25.29,10.5-36.3,20.52-16.54,15-14.49,22.71-26.47,28.72-13.69,6.87-32.76,5.06-45.38-2.93-19.94-12.64-20.88-38.91-21.69-61.55C-22.61,65.1-24.25,19.38,4.77-13.53,63.51-80.13,212.48-54.18,238-2.54Z"/><path class="cls-4" d="M-7.54,26.62C-10.08,33.19-5.89,40.56-5.08,42,.14,51.19,7.15,48.86,15.85,58.62c6.7,7.52,3.8,10.32,11.69,18.46,4.57,4.71,7.07,5.34,11.69,11.07a46.39,46.39,0,0,1,7.39,12.31c4.05,10.32.44,15.27,2.46,21.54,3.88,12.07,26.31,22.55,43.69,15.38,22.2-9.15,26-42.92,15.38-55.38-10.92-12.89-34.71-.12-46.77-15.38C54.8,58.28,60,52,51.54,37.69c-2.71-4.6-9.31-15.83-22.16-20.31C15.64,12.6-3.5,16.17-7.54,26.62Z"/><path d="M20.77,38.31a134.92,134.92,0,0,1,22.48,2.95,96.27,96.27,0,0,1,21.64,7.46A67,67,0,0,1,83.66,62.35a57.89,57.89,0,0,1,7.16,9.31A63.41,63.41,0,0,1,95.91,82.2c1.35,3.59,2.55,7.09,4,10.49a99.61,99.61,0,0,0,4.73,10,104.35,104.35,0,0,0,5.65,9.48c1,1.51,2.07,3.05,3.2,4.52.55.74,1.08,1.49,1.65,2.22l1.73,2.17c1.13,1.46,2.38,2.83,3.58,4.24s2.49,2.76,3.8,4.07c2.54,2.71,5.28,5.23,8.06,7.73A194.79,194.79,0,0,0,150,150.92,133.43,133.43,0,0,1,130.72,139a117.5,117.5,0,0,1-16.85-15.4,105,105,0,0,1-13.41-18.65,95.42,95.42,0,0,1-5.09-10.35C93.86,91,92.58,87.44,91.25,84,86.5,70.17,75.9,59.27,63.08,52.16a108,108,0,0,0-20.46-8.54A199.41,199.41,0,0,0,20.77,38.31Z"/><path class="cls-5" d="M124.74,130.78c-5.38.7-8.76,22.13-1.87,34.7.89,1.61,3.12,5.68,6,5.6,3.61-.11,6-6.78,6.34-7.84C140,149.68,130.09,130.09,124.74,130.78Z"/><path class="cls-5" d="M155.73,38.23c-5.37.69-8.75,22.12-1.86,34.69.88,1.62,3.11,5.68,6,5.6,3.61-.11,6-6.78,6.34-7.84C171,57.12,161.09,37.54,155.73,38.23Z"/><path class="cls-5" d="M209.64,97.14c-4.14-.53-6.74-17-1.44-26.69.68-1.25,2.4-4.38,4.6-4.31,2.77.08,4.59,5.22,4.88,6C221.37,82.61,213.76,97.68,209.64,97.14Z"/><path class="cls-5" d="M225.38,43.31c.44,5.4-19.81,13.18-33.54,9.06-1.77-.52-6.21-1.86-6.72-4.67-.65-3.55,5.38-7.25,6.34-7.83C203.72,32.34,224.94,37.93,225.38,43.31Z"/><path class="cls-5" d="M150.76,120.15c1.15-5.29-17.91-15.66-32.07-13.38-1.81.3-6.39,1-7.27,3.76-1.1,3.43,4.39,7.89,5.26,8.6C127.86,128.19,149.62,125.43,150.76,120.15Z"/><path class="cls-4" d="M-6.79-6.61c3.12-5.08,10.26-5.94,11.65-6.11,8.89-1.07,11,4.93,22,6,8.54.79,8.93-2.63,18.5-1.33,5.54.75,7.26,2.14,13.52,2.42A38.79,38.79,0,0,0,71-6.84c9-2.45,10.52-7.44,15.79-9.24,10.15-3.45,28.83,6.65,33,22.24,5.31,19.91-15.51,39.62-29.38,38.68C76.08,43.87,72.38,21,55.85,20.49c-9-.3-10.57,6.42-24.59,7.9-4.5.48-15.5,1.64-25.16-4.92C-4.24,16.44-11.73,1.47-6.79-6.61Z"/><path d="M20.2,33.72a274.65,274.65,0,0,1,61.26-6.39,262.83,262.83,0,0,1,30.72,1.94l7.63,1,1.91.27,1.89.35,3.78.7,3.79.7c1.26.24,2.52.44,3.77.77l7.48,1.78a226.8,226.8,0,0,1,57,22.45,208.41,208.41,0,0,1,48.4,37.29,207.74,207.74,0,0,0-49-36.19,225.07,225.07,0,0,0-57-21.12l-7.44-1.61c-1.23-.3-2.49-.47-3.74-.68l-3.76-.62-3.75-.62-1.88-.3-1.89-.23-7.55-.87a258.92,258.92,0,0,0-30.37-1.3,270.84,270.84,0,0,0-60.13,7.51Z"/><path d="M4.8,1.85Q17,4.47,29.36,6c8.22,1.06,16.49,1.75,24.76,2.07,4.14.13,8.28.2,12.42.12,2.06,0,4.13-.13,6.2-.17s4.13-.07,6.2-.08c8.28.1,16.54-.37,24.89-.55l0,.3c-4.07.92-8.19,1.65-12.33,2.18-2.07.28-4.15.49-6.23.7s-4.17.24-6.26.37c-4.18.18-8.36.27-12.54.22s-8.35-.4-12.51-.69q-12.5-.95-24.85-3T4.73,2.15Z"/><polyline class="cls-6" points="92.15 2 83.54 9.34 56.15 9.7 74.15 18.92"/><path class="cls-6" d="M12,26.54S34.54,63.1,60,90.77c9.54,10.37,19.48,19.49,28.79,25"/><path class="cls-6" d="M67.23,125S55.51,104.77,60,90.77"/><path class="cls-6" d="M54.31,84.4c13.84,3.14,31.07-1.48,31.07-1.48"/><path class="cls-6" d="M34.68,59.72s-4.25,15.15,0,17.79"/><path class="cls-3" d="M563,466.45c-5,2.1-2.54,23.66,7.46,33.94,1.28,1.32,4.51,4.65,7.24,3.8,3.45-1.06,3.95-8.12,4-9.24C582.77,480.6,568,464.36,563,466.45Z"/><path class="cls-3" d="M641.49,439.76c-26.82,1.45-43.72,46.3-9.31,72.62,4.41,3.38,15.54,11.89,29.79,11.72,18-.23,29.79-14.19,31.66-16.4C717.58,479.3,668.22,438.31,641.49,439.76Z"/><path class="cls-6" d="M566.62,435a942.42,942.42,0,0,1,61.12,77.53q6.56,9.27,12.72,18.47"/><path class="cls-3" d="M689.07,445.72c-10.37.93-16.91,29.85-3.6,46.83,1.71,2.17,6,7.66,11.53,7.55,7-.15,11.52-9.15,12.24-10.58C718.51,471.22,699.41,444.78,689.07,445.72Z"/><path class="cls-7" d="M578.12,500.78c-4.69-2.72.49-23.79,11.71-32.71,1.44-1.15,5.07-4,7.67-2.86,3.28,1.5,2.88,8.57,2.81,9.68C599.49,489.26,582.79,503.49,578.12,500.78Z"/><path class="cls-8" d="M582.28,453.36s-10.47-9-14-7.67"/><path class="cls-6" d="M587.64,459.79c2-10-2.15-14.24-2.15-14.24"/><path class="cls-6" d="M686,453.36a942.49,942.49,0,0,0,32.24,93.32q4.26,10.52,8.67,20.67"/><path class="cls-8" d="M693,476.44s-1.94-13.68,1.13-15.94"/><path class="cls-6" d="M695.5,484.42c-9.46-3.75-10.81-9.5-10.81-9.5"/><path class="cls-6" d="M598.44,469.93a701.69,701.69,0,0,1-43.56,58q-5.36,6.4-10.74,12.55"/><path class="cls-8" d="M588.38,484.48s4.41-9.06,2.73-11.22"/><path class="cls-6" d="M584.82,489.49c7.56-.71,9.79-4.41,9.79-4.41"/></svg>